<svg xmlns="http://www.w3.org/2000/svg" viewBox="0 0 1920 1080" fill="none">
  <defs>
    <linearGradient id="bg" x1="0" y1="0" x2="1" y2="1">
      <stop offset="0%" stop-color="#1a0610"/>
      <stop offset="45%" stop-color="#2a1020"/>
      <stop offset="100%" stop-color="#0a1428"/>
    </linearGradient>
    <linearGradient id="dragon" x1="0" y1="0" x2="1" y2="1">
      <stop offset="0%" stop-color="#ffd54f"/>
      <stop offset="40%" stop-color="#ff6b35"/>
      <stop offset="100%" stop-color="#ff3d5a"/>
    </linearGradient>
    <radialGradient id="glow" cx="50%" cy="40%" r="50%">
      <stop offset="0%" stop-color="#00e8ff" stop-opacity="0.35"/>
      <stop offset="100%" stop-color="#00e8ff" stop-opacity="0"/>
    </radialGradient>
    <filter id="blur"><feGaussianBlur stdDeviation="8"/></filter>
  </defs>
  <rect width="1920" height="1080" fill="url(#bg)"/>
  <rect width="1920" height="1080" fill="url(#glow)"/>
  <g transform="translate(960 420)" filter="url(#blur)" opacity="0.5">
    <ellipse cx="0" cy="80" rx="280" ry="60" fill="#ff3d5a" opacity="0.4"/>
  </g>
  <g transform="translate(960 380)">
    <path d="M-220 20 Q-180 -80 -80 -60 Q20 -40 60 -100 Q120 -180 200 -120 Q280 -60 240 20 Q200 80 120 100 L80 140 Q40 180 0 160 Q-40 140 -60 100 L-100 80 Q-180 60 -220 20 Z" fill="url(#dragon)" opacity="0.95"/>
    <path d="M200 -120 Q260 -100 300 -40 Q320 0 280 40" stroke="#ffd54f" stroke-width="6" fill="none" stroke-linecap="round"/>
    <circle cx="-60" cy="-20" r="12" fill="#00e8ff"/>
    <circle cx="-40" cy="-25" r="8" fill="#fff"/>
    <path d="M-280 0 Q-320 40 -300 80 Q-260 100 -220 60" stroke="#ff6b35" stroke-width="14" fill="none" stroke-linecap="round"/>
  </g>
  <g opacity="0.85">
    <circle cx="200" cy="200" r="4" fill="#ffd54f"/>
    <circle cx="400" cy="150" r="3" fill="#ff3d5a"/>
    <circle cx="1500" cy="250" r="5" fill="#00e8ff"/>
    <circle cx="1700" cy="180" r="3" fill="#ffd54f"/>
    <circle cx="300" cy="800" r="4" fill="#ff6b35"/>
    <circle cx="1600" cy="750" r="4" fill="#00e8ff"/>
  </g>
  <text x="960" y="920" text-anchor="middle" fill="#ffd54f" font-family="system-ui,sans-serif" font-size="42" font-weight="700">™tio · '‹±ooÄ</text>
  <text x="960" y="980" text-anchor="middle" fill="#a89bb8" font-family="system-ui,sans-serif" font-size="24">³W¿ioz/	Plø</text>
</svg>
